<svg xmlns="http://www.w3.org/2000/svg" width="19.300" height="19.300" viewBox="0 0 19.300 19.300" fill="none">
  <path d="M 0 9.65 C 0 4.32 4.32 0 9.65 0 C 14.979 0 19.3 4.32 19.3 9.65 C 19.3 11.188 18.939 12.645 18.297 13.937 L 18.792 15.75 C 18.904 16.16 19.003 16.526 19.057 16.826 C 19.11 17.131 19.147 17.517 19 17.903 C 18.807 18.408 18.408 18.807 17.902 19 C 17.517 19.147 17.131 19.11 16.826 19.057 C 16.526 19.004 16.16 18.904 15.75 18.792 L 13.937 18.298 C 12.645 18.939 11.188 19.3 9.65 19.3 C 4.32 19.3 0 14.98 0 9.65 Z M 4.75 7.65 C 4.75 7.153 5.153 6.75 5.65 6.75 L 13.65 6.75 C 14.147 6.75 14.55 7.153 14.55 7.65 C 14.55 8.147 14.147 8.55 13.65 8.55 L 5.65 8.55 C 5.153 8.55 4.75 8.147 4.75 7.65 Z M 4.75 11.65 C 4.75 11.153 5.153 10.75 5.65 10.75 L 10.4 10.75 C 10.897 10.75 11.3 11.153 11.3 11.65 C 11.3 12.147 10.897 12.55 10.4 12.55 L 5.65 12.55 C 5.153 12.55 4.75 12.147 4.75 11.65 Z" fill="currentColor" fill-rule="evenodd"></path>
</svg>